<svg xmlns="http://www.w3.org/2000/svg" version="1.1" xmlns:xlink="http://www.w3.org/1999/xlink" xmlns:svgjs="http://svgjs.dev/svgjs" viewBox="0 0 800 800"><defs><linearGradient x1="50%" y1="0%" x2="50%" y2="100%" id="ccchaos-grad"><stop stop-color="hsl(206, 75%, 49%)" stop-opacity="1" offset="0%"></stop><stop stop-color="hsl(331, 90%, 56%)" stop-opacity="1" offset="100%"></stop></linearGradient></defs><g stroke-width="2" stroke="url(#ccchaos-grad)" fill="none" stroke-linecap="round"><path d="M364.15 106.88C368.89 93.89 387.24 95.57 395.37 109.79Q401.01 118.79 407.08 127.91 413.53 137.14 420.34 146.49 427.46 155.94 434.83 165.5 442.39 175.16 450.08 184.91 457.83 194.74 465.57 204.64 473.22 214.61 480.71 224.63 487.98 234.69 494.95 244.78 501.57 254.88 507.78 264.99 513.53 275.08 518.78 285.15 523.51 295.18 527.69 305.15 531.31 315.06 534.38 324.88 536.91 334.61 538.92 344.22 540.46 353.72 541.56 363.08 542.29 372.3 542.7 381.36 542.83 398.9 542.72 415.9 543.04 431.97 544.13 447.47 547.23 462.03 551.93 476.06 559.68 489.28 569.37 502.07 575.34 508.25 581.92 514.32 589.08 520.32 596.75 526.25 604.87 532.13 613.38 537.99 622.19 543.83 631.2 549.68 640.34 555.57 649.49 561.51 658.56 567.52 667.44 573.62 676.05 579.84 684.29 586.19 692.08 592.69 699.33 599.35 705.98 606.21 711.96 613.26 717.25 620.53 721.8 628.03C727.03 639.24 714.54 653.9 700.32 657.5Q682.8 665.17 665.27 675.57 647.74 687.48 630.22 699.54 612.69 710.36 595.17 718.68 577.64 723.54 560.11 724.39 542.59 721.12 525.06 714.12 507.54 704.18 490.01 692.47 472.48 680.32 454.96 669.15 437.43 660.23 419.91 654.62 402.38 652.94 384.86 655.39 367.33 661.69 349.8 671.12 332.28 682.58 314.75 694.76 297.23 706.24 279.7 715.7 262.18 722.04 244.65 724.55 227.12 722.92 209.6 717.35 192.07 708.47 174.55 697.32 157.02 685.18 139.5 673.45C125.28 665.17 116.59 646.87 123.14 637.93Q131.66 626.01 139.7 614.39 146.89 603.03 153.6 591.71 159.62 580.23 165.35 568.54 170.84 556.3 176.37 543.66 182.29 530.19 188.62 516.16 195.91 501.15 203.91 485.52 208.35 477.34 213.05 468.97 218 460.39 223.21 451.62 228.66 442.66 234.32 433.53 240.18 424.23 246.21 414.77 252.37 405.16 258.62 395.42 264.92 385.55 271.23 375.59 277.51 365.53 283.71 355.39 289.79 345.19 295.7 334.95 301.41 324.68 306.86 314.39 312.05 304.1 316.92 293.82 321.47 283.58 325.67 273.37 329.52 263.23 333.01 253.15 336.16 243.14 338.96 233.23 341.45 223.42 343.65 213.71 345.59 204.11 347.32 194.64 348.87 185.28 350.31 176.06 351.68 166.97 353.03 158 354.44 149.17 355.95 140.46 361.9 115.18 364.15 106.88" stroke-dasharray="5 10" transform="rotate(0, 400, 400)" opacity="0.14"></path><path d="M366.74 117.18C370.53 104.72 388.25 106.39 396.92 120.06Q402.82 128.72 409.07 137.49 415.64 146.37 422.48 155.36 429.54 164.45 436.78 173.64 444.14 182.92 451.54 192.29 458.94 201.74 466.27 211.26 473.46 220.85 480.46 230.49 487.2 240.18 493.63 249.9 499.69 259.64 505.35 269.4 510.57 279.15 515.32 288.88 519.57 298.59 523.32 308.26 526.56 317.87 529.3 327.42 531.55 336.89 533.34 346.26 534.71 355.54 535.7 364.7 536.35 373.74 536.73 382.64 536.9 399.92 536.87 416.73 537.25 432.68 538.32 448.1 541.2 462.63 545.5 476.64 552.56 489.82 561.4 502.55 573.16 514.63 586.53 526.39 594.06 532.12 601.98 537.79 610.22 543.41 618.71 549 627.38 554.59 636.13 560.18 644.88 565.8 653.54 571.46 662.03 577.18 670.25 582.98 678.13 588.89 685.6 594.91 692.58 601.06 699.01 607.37 704.84 613.84 710.04 620.49C716.33 630.4 705.82 645.83 692.1 651.04Q675.19 660 658.28 670.84 641.37 682.41 624.45 693.47 607.54 702.84 590.63 709.51 573.71 712.78 556.8 712.3 539.89 708.11 522.98 700.67 506.06 690.77 489.15 679.46 472.24 667.96 455.32 657.5 438.41 649.18 421.5 643.9 404.58 642.23 387.67 644.34 370.76 650 353.85 658.62 336.93 669.27 320.02 680.81 303.11 692.01 286.19 701.68 269.28 708.78 252.37 712.55 235.45 712.59 218.54 708.9 201.63 701.87 184.71 692.25 167.8 681.07 150.89 669.52C137.17 660.74 128.54 642.23 134.59 634.14Q142.41 623.17 149.74 612.32 156.29 601.48 162.39 590.53 167.92 579.23 173.24 567.61 178.43 555.33 183.73 542.59 189.49 528.99 195.7 514.83 202.86 499.72 210.7 484.02 215.04 475.84 219.63 467.48 224.47 458.94 229.54 450.22 234.83 441.35 240.32 432.32 246 423.15 251.83 413.84 257.79 404.41 263.83 394.87 269.93 385.23 276.05 375.52 282.14 365.73 288.16 355.88 294.08 346 299.85 336.08 305.44 326.16 310.81 316.23 315.93 306.31 320.77 296.42 325.31 286.57 329.54 276.76 333.44 267.02 337 257.35 340.23 247.76 343.14 238.26 345.73 228.86 348.03 219.56 350.06 210.37 351.86 201.3 353.46 192.34 354.91 183.51 357.51 166.27 360.08 149.4 364.93 125.15 366.74 117.18" stroke-dasharray="6 7" transform="rotate(4.04, 400, 400)" opacity="0.34"></path><path d="M369.91 127.5C372.9 115.55 389.97 117.19 399.05 130.34Q411.46 147.08 424.82 164.22 438.77 181.76 452.9 199.66 466.78 217.87 479.96 236.33 492.05 254.99 502.7 273.75 511.67 292.54 518.82 311.26 524.13 329.82 527.72 348.14 529.81 366.11 530.76 383.66 531 400.72 531.01 417.22 531.34 433.1 532.5 448.33 534.95 462.9 539.11 476.8 545.25 490.05 553.55 502.69 564.01 514.76 576.51 526.35 590.77 537.54 606.38 548.44 622.83 559.15 639.55 569.81 655.92 580.54 671.35 591.47 685.28 602.73 697.25 614.46C704.46 623.25 695.83 639.22 682.63 645.64Q666.36 655.38 650.09 666.21 633.82 677.07 617.56 686.89 601.29 694.71 585.02 699.75 568.76 701.52 552.49 699.84 536.22 694.88 519.95 687.12 503.69 677.34 487.42 666.49 471.15 655.65 454.88 645.87 438.62 638.13 422.35 633.19 406.08 631.53 389.81 633.32 373.55 638.38 357.28 646.21 341.01 656.04 324.74 666.91 308.47 677.74 292.21 687.46 275.94 695.12 259.67 699.97 243.4 701.52 227.14 699.62 210.87 694.46 194.6 686.55 178.33 676.67 162.06 665.79C148.87 656.97 140.27 638.57 145.81 631.1Q152.99 620.8 159.55 610.45 165.53 599.94 171.02 589.12 176.14 577.9 181.05 566.18 185.97 553.86 191.1 540.9 196.65 527.24 202.81 512.87 209.73 497.77 217.53 481.97 226.25 465.49 235.88 448.39 246.33 430.74 257.46 412.61 269.05 394.08 280.86 375.26 292.59 356.24 303.96 337.12 314.7 318.01 324.54 298.98 333.31 280.14 340.87 261.56 347.18 243.3 352.29 225.42 356.32 207.97 359.49 190.97 362.09 174.42 364.44 158.35 368.42 135.1 369.91 127.5" stroke-dasharray="1 4" transform="rotate(8.08, 400, 400)" opacity="0.39"></path><path d="M373.54 137.81C375.89 126.38 392.37 128 401.7 140.61Q414.16 156.65 427.28 173.07 440.73 189.87 454.12 207.01 467.07 224.45 479.21 242.15 490.22 260.04 499.82 278.05 507.85 296.12 514.2 314.16 518.9 332.1 522.07 349.85 523.93 367.32 524.8 384.44 525.07 401.15 525.17 417.37 525.55 433.04 526.68 448.14 528.96 462.63 532.75 476.5 538.32 489.74 545.83 502.38 555.32 514.45 566.71 526 579.79 537.08 594.25 547.79 609.67 558.21 625.57 568.44 641.42 578.58 656.7 588.76 670.89 599.09 683.54 609.69C691.48 617.55 684.57 633.84 671.92 641.03Q656.33 651.03 640.74 661.44 625.14 671.29 609.55 679.71 593.96 685.93 578.36 689.39 562.77 689.78 547.18 687.05 531.59 681.46 515.99 673.52 500.4 663.93 484.81 653.58 469.21 643.39 453.62 634.29 438.03 627.11 422.43 622.49 406.84 620.85 391.25 622.34 375.66 626.83 360.06 633.9 344.47 642.93 328.88 653.08 313.28 663.45 297.69 673.09 282.1 681.13 266.5 686.85 250.91 689.72 235.32 689.48 219.72 686.17 204.13 680.06 188.54 671.73 172.94 661.92C160.3 653.49 151.73 635.52 156.74 628.45Q163.2 618.56 169.1 608.46 174.49 598.06 179.48 587.24 184.19 575.94 188.8 564.08 193.5 551.61 198.47 538.49 203.9 524.69 209.94 510.23 216.74 495.11 224.38 479.35 232.88 463.02 242.23 446.15 252.34 428.82 263.08 411.1 274.26 393.08 285.64 374.85 296.98 356.49 308.03 338.09 318.51 319.74 328.22 301.52 336.95 283.51 344.59 265.76 351.06 248.34 356.39 231.29 360.64 214.65 364 198.43 366.67 182.64 368.94 167.29 372.33 145.08 373.54 137.81" stroke-dasharray="4 9" transform="rotate(12.12, 400, 400)" opacity="0.68"></path><path d="M377.57 148.12C379.43 137.22 395.33 138.82 404.74 150.87Q417.06 166.21 429.78 181.92 442.58 197.97 455.12 214.35 467.09 231.02 478.18 247.93 488.12 265.05 496.72 282.3 503.85 299.64 509.46 316.98 513.6 334.26 516.39 351.4 518.05 368.33 518.85 384.98 519.15 401.28 519.32 417.17 519.76 432.59 520.85 447.51 522.97 461.88 526.43 475.68 531.46 488.91 538.23 501.55 546.79 513.64 557.11 525.19 569.04 536.25 582.33 546.88 596.67 557.13 611.64 567.1 626.82 576.87 641.74 586.53 655.94 596.18 669 605.92C677.47 613.05 672.1 629.35 660.02 636.89Q645.13 646.7 630.24 656.31 615.34 664.92 600.45 671.83 585.56 676.46 570.67 678.42 555.78 677.56 540.88 673.94 525.99 667.87 511.1 659.84 496.21 650.53 481.32 640.7 466.42 631.17 451.53 622.73 436.64 616.08 421.75 611.77 406.86 610.16 391.97 611.38 377.07 615.33 362.18 621.68 347.29 629.9 332.4 639.33 317.51 649.16 302.61 658.59 287.72 666.84 272.83 673.23 257.94 677.21 243.05 678.47 228.16 676.9 213.26 672.63 198.37 666.01 183.48 657.59C171.4 649.92 162.87 632.66 167.36 625.82Q173.13 616.1 178.4 606.06 183.25 595.62 187.79 584.69 192.16 573.23 196.51 561.2 201.02 548.55 205.86 535.29 211.18 521.4 217.12 506.9 223.79 491.81 231.26 476.18 239.53 460.06 248.6 443.5 258.36 426.56 268.7 409.33 279.45 391.88 290.41 374.29 301.35 356.63 312.05 338.99 322.27 321.44 331.8 304.04 340.47 286.87 348.16 269.97 354.77 253.39 360.31 237.17 364.8 221.33 368.38 205.9 371.2 190.87 373.49 176.24 376.55 155.06 377.57 148.12" stroke-dasharray="4 10" transform="rotate(16.16, 400, 400)" opacity="0.80"></path><path d="M381.89 158.45C383.41 148.05 398.73 149.62 408.06 161.14Q420.05 175.78 432.21 190.76 444.24 206.07 455.87 221.68 466.82 237.57 476.85 253.7 485.75 270.04 493.39 286.52 499.68 303.1 504.61 319.71 508.23 336.3 510.69 352.81 512.16 369.15 512.91 385.28 513.24 401.13 513.48 416.64 513.96 431.75 515.03 446.44 516.99 460.64 520.13 474.34 524.67 487.51 530.74 500.14 538.44 512.24 547.74 523.82 558.54 534.9 570.68 545.52 583.88 555.73 597.85 565.57 612.22 575.12 626.59 584.46 640.57 593.65 653.76 602.79C662.57 609.38 658.53 625.43 647.04 632.91Q632.87 642.11 618.7 650.63 604.53 657.85 590.36 663.2 576.19 666.28 562.02 666.87 547.85 664.91 533.68 660.56 519.51 654.14 505.34 646.14 491.17 637.16 477 627.89 462.83 619.01 448.66 611.22 434.5 605.08 420.33 601.07 406.16 599.49 391.99 600.46 377.82 603.9 363.65 609.56 349.48 617 335.31 625.68 321.14 634.92 306.97 644.03 292.8 652.33 278.63 659.18 264.46 664.07 250.29 666.62 236.13 666.66 221.96 664.16 207.79 659.33 193.62 652.53C182.13 645.91 173.67 629.61 177.65 622.83Q182.77 613.11 187.46 602.98 191.83 592.39 195.98 581.29 200.05 569.64 204.19 557.42 208.55 544.63 213.27 531.27 218.5 517.34 224.34 502.88 230.88 487.91 238.17 472.49 246.21 456.66 254.97 440.48 264.38 424.02 274.32 407.34 284.64 390.51 295.16 373.61 305.69 356.7 316.02 339.84 325.95 323.11 335.29 306.56 343.87 290.24 351.57 274.19 358.3 258.46 364.03 243.07 368.77 228.04 372.59 213.39 375.62 199.11 378.04 185.2 380.97 165.05 381.89 158.45" stroke-dasharray="6 7" transform="rotate(20.200000000000003, 400, 400)" opacity="0.46"></path><path d="M386.36 168.76C387.71 158.9 402.43 160.42 411.53 171.39Q423.03 185.34 434.48 199.59 445.66 214.15 456.31 229 466.22 244.11 475.21 259.45 483.12 274.99 489.85 290.69 495.36 306.5 499.66 322.37 502.82 338.25 504.97 354.08 506.28 369.8 506.99 385.36 507.35 400.71 507.64 415.78 508.16 430.53 509.2 444.92 511.02 458.9 513.87 472.44 517.95 485.51 523.38 498.1 530.26 510.19 538.58 521.8 548.31 532.91 559.3 543.57 571.37 553.79 584.27 563.61 597.71 573.08 611.38 582.25 624.92 591.18 637.99 599.95C646.94 606.19 643.97 621.71 633.08 628.76Q619.65 637.01 606.22 644.24 592.79 649.95 579.36 653.75 565.93 655.38 552.5 654.73 539.07 651.84 525.64 646.91 512.22 640.28 498.79 632.41 485.36 623.82 471.93 615.12 458.5 606.9 445.07 599.72 431.64 594.08 418.21 590.36 404.78 588.81 391.35 589.55 377.92 592.52 364.49 597.52 351.07 604.21 337.64 612.12 324.21 620.72 310.78 629.41 297.35 637.6 283.92 644.73 270.49 650.31 257.06 653.95 243.63 655.41 230.2 654.59 216.77 651.53 203.34 646.46C192.45 641.1 184.08 625.98 187.58 619.14Q192.1 609.28 196.29 598.98 200.24 588.18 204.06 576.88 207.89 565.05 211.86 552.69 216.09 539.8 220.72 526.41 225.86 512.52 231.6 498.18 238 483.42 245.1 468.29 252.9 452.84 261.35 437.13 270.4 421.21 279.93 405.15 289.82 389 299.9 372.84 310 356.71 319.96 340.67 329.57 324.78 338.69 309.08 347.15 293.62 354.83 278.43 361.64 263.54 367.53 248.98 372.5 234.76 376.59 220.88 379.87 207.35 382.48 194.17 385.47 175.04 386.36 168.76" stroke-dasharray="3 5" transform="rotate(24.24, 400, 400)" opacity="0.19"></path><path d="M390.89 179.1C392.18 169.73 406.3 171.22 415.03 181.65Q425.87 194.9 436.52 208.43 446.76 222.24 456.4 236.32 465.28 250.64 473.25 265.19 480.21 279.94 486.09 294.84 490.89 309.87 494.61 324.97 497.36 340.11 499.23 355.24 500.41 370.3 501.08 385.25 501.46 400.04 501.81 414.62 502.36 428.95 503.37 442.97 505.06 456.66 507.64 469.98 511.29 482.9 516.13 495.39 522.24 507.44 529.65 519.04 538.34 530.19 548.22 540.89 559.14 551.16 570.94 561.02 583.37 570.49 596.19 579.63 609.1 588.45 621.83 597.03C630.7 603.08 628.59 617.83 618.32 624.16Q605.64 631.2 592.96 636.99 580.29 641.17 567.61 643.49 554.93 643.79 542.25 642.06 529.57 638.41 516.9 633.06 504.22 626.35 491.54 618.68 478.86 610.54 466.18 602.43 453.51 594.85 440.83 588.27 428.15 583.1 415.47 579.65 402.79 578.15 390.12 578.68 377.44 581.22 364.76 585.6 352.08 591.55 339.4 598.71 326.73 606.63 314.05 614.82 301.37 622.77 288.69 630 276.01 636.05 263.33 640.54 250.66 643.21 237.98 643.89 225.3 642.53 212.62 639.21C202.34 635.23 194.13 621.42 197.19 614.45Q201.18 604.38 204.92 593.86 208.52 582.86 212.07 571.38 215.71 559.41 219.54 546.97 223.67 534.06 228.22 520.72 233.28 506.97 238.91 492.84 245.17 478.39 252.07 463.64 259.61 448.66 267.75 433.49 276.42 418.19 285.54 402.8 294.98 387.39 304.61 372 314.29 356.68 323.84 341.49 333.13 326.46 341.99 311.63 350.29 297.03 357.91 282.7 364.77 268.66 370.8 254.92 375.98 241.5 380.33 228.4 383.89 215.62 386.75 203.15 389.96 185.04 390.89 179.1" stroke-dasharray="1 0" transform="rotate(28.28, 400, 400)" opacity="0.37"></path><path d="M395.33 189.42C396.68 180.58 410.2 182.02 418.41 191.9Q428.48 204.44 438.23 217.25 447.49 230.31 456.11 243.62 463.97 257.16 470.97 270.92 477.03 284.86 482.13 298.96 486.26 313.19 489.48 327.51 491.84 341.89 493.48 356.29 494.53 370.65 495.17 384.95 495.58 399.14 495.98 413.18 496.56 427.02 497.53 440.62 499.1 453.96 501.43 466.98 504.69 479.68 508.97 492.01 514.38 503.96 520.93 515.51 528.64 526.65 537.44 537.38 547.24 547.7 557.92 557.62 569.28 567.15 581.15 576.32 593.28 585.16 605.44 593.69C614.07 599.66 612.59 613.42 602.92 618.81Q591 624.47 579.08 628.77 567.16 631.46 555.24 632.39 543.32 631.52 531.4 628.89 519.48 624.64 507.56 619.02 495.64 612.34 483.72 604.96 471.8 597.31 459.88 589.79 447.96 582.84 436.04 576.84 424.12 572.12 412.2 568.94 400.28 567.48 388.36 567.83 376.44 569.96 364.52 573.76 352.6 579.01 340.68 585.42 328.76 592.63 316.84 600.25 304.92 607.85 293 615.01 281.08 621.32 269.16 626.45 257.24 630.1 245.32 632.07 233.4 632.25 221.48 630.63C211.8 628.05 203.81 615.64 206.49 608.51Q210.02 598.22 213.39 587.5 216.7 576.33 220.04 564.73 223.52 552.7 227.25 540.26 231.31 527.43 235.79 514.24 240.76 500.73 246.28 486.92 252.38 472.86 259.07 458.59 266.34 444.16 274.16 429.61 282.45 414.98 291.15 400.33 300.14 385.7 309.31 371.12 318.54 356.65 327.69 342.31 336.62 328.15 345.2 314.2 353.31 300.47 360.84 287 367.7 273.8 373.83 260.89 379.19 248.26 383.78 235.93 387.62 223.89 390.77 212.13 394.31 195.03 395.33 189.42" stroke-dasharray="8 3" transform="rotate(32.32, 400, 400)" opacity="0.75"></path><path d="M399.57 199.76C401.07 191.43 413.97 192.83 421.56 202.16Q430.76 214 439.55 226.07 447.81 238.39 455.42 250.93 462.29 263.68 468.36 276.64 473.59 289.77 477.97 303.06 481.51 316.49 484.26 330.01 486.29 343.61 487.72 357.24 488.67 370.88 489.28 384.49 489.72 398.03 490.15 411.47 490.75 424.76 491.7 437.88 493.15 450.79 495.25 463.45 498.14 475.85 501.93 487.94 506.68 499.72 512.44 511.16 519.22 522.24 526.99 532.95 535.7 543.3 545.26 553.27 555.52 562.87 566.36 572.11 577.58 581.01 589 589.59C597.22 595.57 596.15 608.21 587.09 612.49Q575.93 616.69 564.77 619.5 553.6 620.79 542.44 620.49 531.28 618.61 520.12 615.26 508.96 610.59 497.8 604.84 486.64 598.3 475.47 591.28 464.31 584.13 453.15 577.22 441.99 570.88 430.83 565.44 419.67 561.14 408.51 558.23 397.35 556.82 386.19 557.01 375.02 558.77 363.86 562.02 352.7 566.6 341.54 572.28 330.38 578.78 319.22 585.77 308.06 592.92 296.9 599.86 285.74 606.25 274.58 611.77 263.42 616.16 252.25 619.18 241.09 620.7 229.93 620.63C220.87 619.41 213.16 608.44 215.5 601.15Q218.64 590.68 221.72 579.81 224.8 568.55 227.99 556.91 231.36 544.92 235.01 532.59 239.01 519.95 243.42 507.03 248.31 493.85 253.71 480.47 259.64 466.9 266.11 453.2 273.1 439.4 280.57 425.53 288.48 411.64 296.75 397.77 305.29 383.95 314 370.23 322.77 356.62 331.5 343.16 340.05 329.88 348.32 316.81 356.2 303.96 363.6 291.34 370.42 278.98 376.6 266.88 382.11 255.05 386.92 243.48 391.02 232.18 394.46 221.13 398.43 205.04 399.57 199.76" stroke-dasharray="9 5" transform="rotate(36.36, 400, 400)" opacity="0.85"></path><path d="M403.49 210.09C405.22 202.27 417.45 203.61 424.36 212.4Q432.62 223.54 440.42 234.89 447.67 246.45 454.3 258.22 460.23 270.19 465.44 282.35 469.9 294.67 473.62 307.15 476.62 319.75 478.96 332.47 480.71 345.27 481.96 358.12 482.81 371 483.4 383.88 483.86 396.73 484.32 409.52 484.94 422.21 485.85 434.78 487.19 447.19 489.09 459.42 491.65 471.44 494.97 483.22 499.12 494.74 504.14 505.99 510.06 516.94 516.87 527.57 524.53 537.88 532.98 547.86 542.14 557.5 551.89 566.82 562.11 575.8 572.65 584.46C580.35 590.5 579.49 601.91 571.05 605.02Q560.64 607.75 550.23 609.16 539.83 609.19 529.42 607.83 519.01 605.14 508.6 601.25 498.2 596.32 487.79 590.57 477.38 584.26 466.98 577.65 456.57 571.05 446.16 564.74 435.75 559 425.35 554.08 414.94 550.19 404.53 547.52 394.13 546.18 383.72 546.22 373.31 547.64 362.9 550.39 352.5 554.33 342.09 559.31 331.68 565.09 321.28 571.42 310.87 578.03 300.46 584.63 290.06 590.92 279.65 596.63 269.24 601.5 258.83 605.33 248.43 607.94 238.02 609.22C229.58 609.24 222.2 599.67 224.29 592.27Q227.13 581.68 229.97 570.76 232.89 559.52 235.96 547.96 239.26 536.13 242.85 524.02 246.79 511.69 251.14 499.15 255.93 486.43 261.2 473.56 266.95 460.58 273.18 447.53 279.88 434.42 287.01 421.31 294.52 408.21 302.35 395.17 310.43 382.2 318.67 369.34 326.98 356.62 335.27 344.05 343.43 331.66 351.36 319.46 358.98 307.48 366.19 295.72 372.92 284.19 379.12 272.9 384.72 261.85 389.7 251.04 394.05 240.47 397.78 230.13 402.2 215.05 403.49 210.09" stroke-dasharray="4 0" transform="rotate(40.400000000000006, 400, 400)" opacity="0.08"></path><path d="M406.99 220.43C408.97 213.12 420.54 214.41 426.69 222.65Q433.97 233.07 440.78 243.7 447.05 254.52 452.74 265.52 457.79 276.7 462.21 288.06 465.97 299.57 469.1 311.23 471.63 323.01 473.61 334.9 475.1 346.89 476.19 358.94 476.97 371.04 477.54 383.16 478.01 395.28 478.5 407.37 479.13 419.4 480 431.36 481.24 443.21 482.95 454.92 485.21 466.49 488.11 477.87 491.71 489.06 496.06 500.02 501.18 510.75 507.08 521.22 513.74 531.42 521.14 541.34 529.2 550.96 537.86 560.3 547.02 569.33 556.57 578.07C563.62 584.18 562.81 594.31 554.98 596.24Q545.32 597.59 535.65 597.73 525.99 596.67 516.33 594.45 506.67 591.15 497.01 586.9 487.35 581.86 477.69 576.23 468.03 570.23 458.37 564.09 448.71 558.04 439.05 552.32 429.39 547.16 419.72 542.74 410.06 539.25 400.4 536.81 390.74 535.52 381.08 535.44 371.42 536.56 361.76 538.84 352.1 542.19 342.44 546.49 332.77 551.56 323.11 557.21 313.45 563.23 303.79 569.37 294.13 575.41 284.47 581.11 274.81 586.24 265.15 590.61 255.49 594.05 245.82 596.43C237.99 597.52 231.02 589.27 232.9 581.84Q235.51 571.26 238.19 560.41 241 549.31 243.99 537.96 247.24 526.41 250.78 514.66 254.67 502.75 258.95 490.7 263.64 478.54 268.75 466.29 274.31 453.98 280.29 441.65 286.68 429.31 293.45 417 300.56 404.74 307.95 392.55 315.56 380.47 323.33 368.5 331.17 356.67 339 345 346.74 333.5 354.31 322.18 361.63 311.06 368.62 300.15 375.22 289.45 381.37 278.96 387.01 268.69 392.12 258.63 396.67 248.78 400.66 239.14 405.54 225.06 406.99 220.43" stroke-dasharray="3 3" transform="rotate(44.44, 400, 400)" opacity="0.73"></path><path d="M409.98 230.78C412.22 223.98 423.1 225.21 428.46 232.9Q434.77 242.62 440.61 252.52 445.94 262.59 450.74 272.82 454.98 283.22 458.67 293.78 461.81 304.48 464.42 315.31 466.53 326.27 468.2 337.33 469.47 348.49 470.43 359.72 471.14 371.01 471.69 382.34 472.18 393.69 472.68 405.04 473.31 416.37 474.15 427.66 475.29 438.88 476.82 450.02 478.81 461.05 481.33 471.95 484.43 482.71 488.17 493.3 492.56 503.71 497.62 513.92 503.35 523.91 509.73 533.68 516.73 543.21 524.3 552.49 532.37 561.52 540.88 570.28C547.22 576.43 546.35 585.28 539.1 586.12Q530.18 586.22 521.25 585.28 512.32 583.34 503.39 580.45 494.46 576.73 485.53 572.29 476.61 567.28 467.68 561.88 458.75 556.25 449.82 550.61 440.89 545.12 431.96 539.99 423.04 535.38 414.11 531.44 405.18 528.32 396.25 526.11 387.32 524.89 378.4 524.7 369.47 525.55 360.54 527.4 351.61 530.21 342.68 533.86 333.76 538.24 324.83 543.21 315.9 548.59 306.97 554.2 298.04 559.85 289.12 565.35 280.19 570.53 271.26 575.19 262.33 579.19 253.41 582.39C246.16 584.33 239.69 577.29 241.41 569.92Q243.87 559.48 246.44 548.85 249.18 538.02 252.13 527.03 255.33 515.89 258.84 504.62 262.67 493.25 266.86 481.8 271.43 470.29 276.38 458.75 281.72 447.19 287.43 435.65 293.51 424.13 299.91 412.67 306.6 401.28 313.55 389.98 320.69 378.79 327.97 367.72 335.32 356.8 342.69 346.02 350 335.41 357.18 324.97 364.17 314.72 370.9 304.64 377.31 294.76 383.35 285.06 388.98 275.56 394.16 266.25 398.85 257.12 403.06 248.17 408.37 235.09 409.98 230.78" stroke-dasharray="4 1" transform="rotate(48.48, 400, 400)" opacity="0.28"></path><path d="M412.37 241.13C414.87 234.82 425.02 236 429.61 243.13Q434.95 252.15 439.86 261.33 444.32 270.65 448.3 280.12 451.81 289.74 454.85 299.5 457.44 309.39 459.59 319.4 461.34 329.52 462.74 339.75 463.82 350.07 464.66 360.48 465.32 370.94 465.85 381.46 466.35 392.02 466.87 402.59 467.49 413.17 468.29 423.74 469.34 434.27 470.7 444.76 472.45 455.18 474.62 465.52 477.28 475.76 480.46 485.89 484.19 495.88 488.48 505.73 493.35 515.41 498.79 524.92 504.77 534.25 511.28 543.38 518.28 552.3 525.71 561.01C531.29 567.14 530.25 574.76 523.59 574.62Q507.17 571.85 490.75 565.9 474.33 557.47 457.91 547.52 441.49 537.21 425.07 527.73 408.66 520.16 392.24 515.39 375.82 513.97 359.4 516.05 342.98 521.4 326.56 529.4 310.14 539.13 293.72 549.47 277.3 559.21 260.88 567.24C254.21 569.79 248.28 563.82 249.91 556.63Q252.27 546.49 254.78 536.21 257.47 525.81 260.39 515.3 263.57 504.71 267.03 494.04 270.79 483.32 274.89 472.57 279.32 461.8 284.08 451.04 289.19 440.3 294.62 429.59 300.35 418.94 306.37 408.37 312.65 397.88 319.14 387.48 325.8 377.2 332.59 367.05 339.46 357.03 346.35 347.15 353.2 337.42 359.97 327.85 366.59 318.44 373.02 309.19 379.2 300.12 385.08 291.21 390.63 282.46 395.81 273.89 400.59 265.47 404.95 257.21 410.63 245.11 412.37 241.13" stroke-dasharray="7 6" transform="rotate(52.52, 400, 400)" opacity="0.99"></path><path d="M414.13 251.49C416.84 245.68 426.23 246.79 430.06 253.38Q438.54 270.14 445.44 287.43 450.77 305.23 454.63 323.5 457.24 342.19 458.91 361.23 460.04 380.54 461.06 400.05 462.43 419.64 464.61 439.21 468 458.65 472.94 477.86 479.67 496.72 488.32 515.13 498.86 533 511.18 550.24C515.99 556.29 514.71 562.75 508.63 561.81Q493.61 557.56 478.59 550.91 463.57 542.53 448.55 533.23 433.54 523.93 418.52 515.55 403.5 508.92 388.48 504.68 373.46 503.26 358.44 504.79 343.42 509.13 328.41 515.84 313.39 524.27 298.37 533.58 283.35 542.87 268.33 551.2C262.24 554.12 256.88 549.09 258.45 542.17Q263.24 522.71 268.81 502.98 275.36 483.08 283.02 463.14 291.85 443.26 301.83 423.57 312.85 404.15 324.72 385.1 337.2 366.49 349.97 348.38 362.68 330.81 375 313.82 386.56 297.4 397.09 281.56 410.23 258.88 414.13 251.49" stroke-dasharray="4 9" transform="rotate(56.56, 400, 400)" opacity="0.80"></path><path d="M415.18 261.84C418.05 256.55 426.68 257.58 429.8 263.61Q436.65 278.95 442.19 294.74 446.45 310.97 449.56 327.62 451.71 344.64 453.17 361.99 454.24 379.61 455.25 397.44 456.56 415.41 458.52 433.43 461.43 451.43 465.58 469.32 471.16 487.01 478.31 504.41 487.05 521.46 497.34 538.06C501.4 543.92 499.88 549.35 494.34 547.81Q480.69 542.55 467.04 535.6 453.38 527.53 439.73 519.02 426.08 510.77 412.43 503.47 398.77 497.71 385.12 493.98 371.47 492.58 357.82 493.63 344.16 497.05 330.51 502.55 316.86 509.67 303.2 517.83 289.55 526.35 275.9 534.52C270.36 537.57 265.6 533.3 267.16 526.78Q271.92 508.56 277.45 490.24 283.88 471.9 291.29 453.63 299.71 435.52 309.09 417.64 319.34 400.07 330.31 382.87 341.8 366.07 353.56 349.73 365.33 333.87 376.84 318.5 387.8 303.63 397.98 289.25 411.17 268.58 415.18 261.84" stroke-dasharray="7 3" transform="rotate(60.599999999999994, 400, 400)" opacity="0.84"></path><path d="M415.53 272.2C418.49 267.4 426.34 268.36 428.81 273.84Q434.22 287.76 438.56 302.06 441.91 316.74 444.4 331.76 446.17 347.12 447.44 362.77 448.45 378.69 449.45 394.82 450.69 411.11 452.44 427.51 454.93 443.95 458.38 460.38 462.95 476.72 468.76 492.91 475.87 508.9 484.28 524.6C487.61 530.17 485.86 534.7 480.86 532.75Q468.54 526.95 456.21 520.06 443.89 512.55 431.56 504.94 419.24 497.74 406.92 491.46 394.59 486.52 382.27 483.26 369.94 481.91 357.62 482.56 345.29 485.16 332.97 489.53 320.64 495.39 308.32 502.31 295.99 509.83 283.67 517.44C278.67 520.43 274.54 516.76 276.09 510.75Q280.84 494.02 286.31 477.3 292.58 460.67 299.69 444.19 307.64 427.92 316.39 411.9 325.85 396.19 335.9 380.82 346.38 365.83 357.12 351.23 367.91 337.04 378.55 323.27 388.81 309.92 398.51 296.97 411.5 278.3 415.53 272.2" stroke-dasharray="11 6" transform="rotate(64.64, 400, 400)" opacity="0.67"></path><path d="M415.19 282.58C418.15 278.27 425.21 279.15 427.11 284.08Q431.26 296.59 434.59 309.4 437.19 322.53 439.15 335.95 440.61 349.66 441.73 363.62 442.68 377.82 443.64 392.23 444.81 406.81 446.36 421.52 448.47 436.32 451.31 451.16 455 466.01 459.64 480.8 465.3 495.5 472 510.06C474.67 515.25 472.73 519.01 468.25 516.87Q457.22 510.95 446.19 504.43 435.17 497.65 424.14 491.01 413.11 484.86 402.08 479.55 391.05 475.37 380.02 472.56 368.99 471.27 357.96 471.58 346.93 473.46 335.9 476.82 324.87 481.46 313.84 487.14 302.81 493.52 291.78 500.26C287.31 503.01 283.8 499.82 285.35 494.39Q290.07 479.34 295.44 464.38 301.49 449.58 308.23 434.95 315.66 420.56 323.72 406.41 332.36 392.56 341.48 379 350.95 365.78 360.65 352.89 370.43 340.34 380.14 328.13 389.61 316.27 398.7 304.73 411.23 288.04 415.19 282.58" stroke-dasharray="2 9" transform="rotate(68.68, 400, 400)" opacity="0.77"></path><path d="M414.17 292.95C417.07 289.13 423.31 289.93 424.73 294.31Q427.83 305.4 430.33 316.74 432.31 328.33 433.85 340.17 435.06 352.24 436.04 364.53 436.93 377.02 437.84 389.7 438.92 402.54 440.28 415.52 442.06 428.62 444.37 441.79 447.3 455.02 450.93 468.27 455.33 481.5 460.54 494.68C462.62 499.42 460.53 502.53 456.58 500.37Q446.81 494.72 437.05 488.81 427.28 482.9 417.52 477.25 407.75 472.12 397.99 467.71 388.22 464.24 378.45 461.85 368.69 460.64 358.92 460.68 349.16 461.95 339.39 464.41 329.62 467.94 319.86 472.39 310.09 477.56 300.32 483.23C296.37 485.61 293.45 482.82 295 478.01Q299.66 464.78 304.85 451.69 310.6 438.76 316.91 426.03 323.76 413.52 331.1 401.23 338.89 389.2 347.06 377.43 355.51 365.93 364.16 354.7 372.91 343.75 381.63 333.07 390.23 322.66 398.59 312.51 410.39 297.78 414.17 292.95" stroke-dasharray="10 1" transform="rotate(72.72, 400, 400)" opacity="0.69"></path><path d="M412.54 303.34C415.28 300 420.71 300.72 421.73 304.55Q423.97 314.23 425.81 324.11 427.3 334.18 428.51 344.44 429.51 354.89 430.37 365.52 431.19 376.32 432.05 387.28 433.03 398.38 434.21 409.62 435.69 420.97 437.54 432.41 439.83 443.94 442.61 455.52 445.95 467.14 449.87 478.77C451.42 482.96 449.3 485.55 445.84 483.53Q437.31 478.44 428.78 473.33 420.26 468.36 411.73 463.71 403.2 459.54 394.68 455.97 377.62 451.59 360.57 449.87 352.04 450.64 343.52 452.32 334.99 454.85 326.46 458.16 317.94 462.13 309.41 466.63C305.94 468.57 303.6 466.06 305.12 461.94Q309.62 450.6 314.56 439.42 319.94 428.39 325.74 417.54 331.94 406.89 338.52 396.43 345.43 386.18 352.63 376.13 360.06 366.31 367.64 356.69 375.33 347.29 383.03 338.11 390.68 329.12 398.19 320.34 409.02 307.54 412.54 303.34" stroke-dasharray="0 9" transform="rotate(76.76, 400, 400)" opacity="0.69"></path><path d="M410.36 313.72C412.85 310.88 417.48 311.5 418.19 314.78Q421.09 331.48 423.15 348.76 424.74 366.61 426.26 385 428.14 403.87 430.81 423.14 434.64 442.76 439.94 462.6C441.06 466.19 438.98 468.36 436.02 466.6Q421.41 458.08 406.79 450.4 392.18 444.32 377.56 440.43 362.94 439.13 348.33 440.53 333.71 444.51 319.09 450.66C316.13 452.13 314.31 449.88 315.76 446.46Q324.6 427.74 334.71 409.59 345.98 392.05 358.2 375.14 371.1 358.87 384.35 343.23 397.56 328.2 410.36 313.72 410.36 313.72 410.36 313.72" stroke-dasharray="4 7" transform="rotate(80.80000000000001, 400, 400)" opacity="0.97"></path><path d="M407.73 324.11C409.89 321.75 413.73 322.28 414.2 325.01Q416.22 338.87 417.79 353.14 419.13 367.83 420.47 382.9 422.07 398.34 424.16 414.12 426.98 430.19 430.7 446.51C431.47 449.46 429.54 451.26 427.06 449.84Q414.86 443.16 402.66 437.33 390.46 432.74 378.26 429.72 366.06 428.46 353.86 429.06 341.66 431.48 329.46 435.54C326.98 436.54 325.62 434.55 326.96 431.81Q334.96 416.81 343.83 402.24 353.47 388.12 363.77 374.46 374.55 361.24 385.61 348.46 402.24 330.1 407.73 324.11" stroke-dasharray="3 2" transform="rotate(84.84, 400, 400)" opacity="0.13"></path><path d="M404.73 334.51C406.52 332.63 409.55 333.06 409.87 335.25Q411.26 346.29 412.44 357.6 413.54 369.18 414.68 381.02 415.99 393.11 417.58 405.45 419.57 418 422.07 430.77C422.58 433.09 420.87 434.56 418.89 433.51Q409.09 428.68 399.3 424.54 389.5 421.27 379.7 419.01 369.91 417.88 360.11 417.91 350.31 419.11 340.51 421.43C338.53 422.02 337.56 420.31 338.75 418.21Q345.65 406.75 353.1 395.58 361.01 384.7 369.33 374.12 377.97 363.82 386.82 353.79 400.26 339.27 404.73 334.51" stroke-dasharray="3 5" transform="rotate(88.88, 400, 400)" opacity="0.90"></path><path d="M401.49 344.92C402.86 343.52 405.11 343.84 405.32 345.48Q407.13 362.12 408.9 379.38 411.04 397.23 413.95 415.66C414.26 417.35 412.89 418.5 411.38 417.81Q396.61 412.01 381.84 408.3 367.07 407.06 352.29 408.4C350.79 408.68 350.16 407.29 351.13 405.79Q362.51 389.63 374.9 374.11 388.01 359.23 401.49 344.92 401.49 344.92 401.49 344.92" stroke-dasharray="9 10" transform="rotate(92.92, 400, 400)" opacity="0.51"></path><path d="M398.13 355.33C399.05 354.39 400.54 354.62 400.66 355.71Q401.87 366.72 403.12 378.01 404.54 389.57 406.24 401.41C406.41 402.49 405.43 403.32 404.43 402.95Q394.51 399.78 384.6 397.6 374.68 396.5 364.76 396.53C363.75 396.6 363.39 395.59 364.08 394.65Q372.06 384.41 380.46 374.46 393.66 360.05 398.13 355.33" stroke-dasharray="10 1" transform="rotate(96.96, 400, 400)" opacity="0.64"></path></g></svg>